RobotoExtremo-opszmin-wghtmin.ufo
<glyph name="quotesingle" format="2">
  <advance width="321"/>
  <unicode hex="0027"/>
  <outline>
    <contour>
      <point x="115.10000000000001" y="1070.0" type="line"/>
      <point x="205.70000000000005" y="1070.0" type="line"/>
      <point x="220.8" y="1348.56" type="line"/>
      <point x="220.8" y="1456.0" type="line"/>
      <point x="100.0" y="1456.0" type="line"/>
      <point x="100.0" y="1348.56" type="line"/>
    </contour>
  </outline>
</glyph>
<glyph name="eight" format="2">
  <advance width="1293"/>
  <unicode hex="0038"/>
  <outline>
    <contour>
      <point x="219.66" y="379.2" type="qcurve" smooth="yes"/>
      <point x="219.66" y="184.43653846153848"/>
      <point x="468.92" y="-30.0"/>
      <point x="646.76" y="-30.0" type="qcurve" smooth="yes"/>
      <point x="824.5999999999999" y="-30.0"/>
      <point x="1075.18" y="184.43653846153848"/>
      <point x="1075.18" y="379.2" type="qcurve" smooth="yes"/>
      <point x="1075.18" y="511.67619047619047"/>
      <point x="933.4769688396158" y="703.1807403563972"/>
      <point x="820.9599999999999" y="743.0" type="qcurve"/>
      <point x="820.9599999999999" y="747.0" type="line"/>
      <point x="909.8182930452872" y="786.4715461412335"/>
      <point x="1027.08" y="971.4"/>
      <point x="1027.08" y="1093.8" type="qcurve" smooth="yes"/>
      <point x="1027.08" y="1268.7323308270677"/>
      <point x="803.5" y="1486.0"/>
      <point x="646.76" y="1486.0" type="qcurve" smooth="yes"/>
      <point x="490.02" y="1486.0"/>
      <point x="267.44" y="1270.7323308270677"/>
      <point x="267.44" y="1093.8" type="qcurve" smooth="yes"/>
      <point x="267.44" y="971.4"/>
      <point x="385.0217069547127" y="786.4715461412335"/>
      <point x="473.55999999999995" y="747.0" type="qcurve"/>
      <point x="473.55999999999995" y="743.0" type="line"/>
      <point x="361.0430311603842" y="703.1807403563972"/>
      <point x="219.66" y="511.67619047619047"/>
    </contour>
    <contour>
      <point x="322.67999999999995" y="384.79999999999995" type="qcurve" smooth="yes"/>
      <point x="322.67999999999995" y="523.0131736526946"/>
      <point x="502.67999999999995" y="696.6"/>
      <point x="646.76" y="696.6" type="qcurve" smooth="yes"/>
      <point x="791.1600000000001" y="696.6"/>
      <point x="972.1599999999999" y="523.0131736526946"/>
      <point x="972.1599999999999" y="384.79999999999995" type="qcurve" smooth="yes"/>
      <point x="972.1599999999999" y="242.36699453551915"/>
      <point x="791.1600000000001" y="66.8"/>
      <point x="646.76" y="66.8" type="qcurve" smooth="yes"/>
      <point x="502.67999999999995" y="66.8"/>
      <point x="322.67999999999995" y="242.36699453551915"/>
    </contour>
    <contour>
      <point x="368.52" y="1088.1999999999998" type="qcurve" smooth="yes"/>
      <point x="368.52" y="1220.138911174785"/>
      <point x="524.28" y="1389.2"/>
      <point x="646.76" y="1389.2" type="qcurve" smooth="yes"/>
      <point x="769.56" y="1389.2"/>
      <point x="926.0" y="1220.138911174785"/>
      <point x="926.0" y="1088.1999999999998" type="qcurve" smooth="yes"/>
      <point x="926.0" y="960.6211987381704"/>
      <point x="769.56" y="793.4"/>
      <point x="646.76" y="793.4" type="qcurve" smooth="yes"/>
      <point x="524.28" y="793.4"/>
      <point x="368.52" y="960.6211987381704"/>
    </contour>
  </outline>
</glyph>
<glyph name="nine" format="2">
  <advance width="1230"/>
  <unicode hex="0039"/>
  <outline>
    <contour>
      <point x="159.03999999999996" y="1000.8" type="qcurve" smooth="yes"/>
      <point x="159.03999999999996" y="796.5022406639005"/>
      <point x="384.31661237785016" y="544.8000000000001"/>
      <point x="572.12" y="544.8000000000001" type="qcurve" smooth="yes"/>
      <point x="762.2090909090908" y="544.8000000000001"/>
      <point x="1011.52" y="800.8686725663717"/>
      <point x="1011.52" y="1000.8" type="qcurve"/>
      <point x="965.6800000000001" y="1000.8" type="line"/>
      <point x="965.6800000000001" y="847.0362620857975"/>
      <point x="740.72" y="642.8"/>
      <point x="594.72" y="642.8" type="qcurve" smooth="yes"/>
      <point x="436.15999999999997" y="642.8"/>
      <point x="261.67999999999995" y="829.1329785037079"/>
      <point x="261.67999999999995" y="1000.8" type="qcurve" smooth="yes"/>
      <point x="261.67999999999995" y="1184.860431085291"/>
      <point x="436.15999999999997" y="1388.0"/>
      <point x="594.72" y="1388.0" type="qcurve" smooth="yes"/>
      <point x="752.3199999999999" y="1388.0"/>
      <point x="959.6800000000001" y="1144.7788235294117"/>
      <point x="959.6800000000001" y="852.0" type="qcurve" smooth="yes"/>
      <point x="959.6800000000001" y="802.0" type="line" smooth="yes"/>
      <point x="959.6800000000001" y="448.72237388724034"/>
      <point x="632.7218181818182" y="69.2"/>
      <point x="355.11999999999995" y="69.2" type="qcurve" smooth="yes"/>
      <point x="333.52" y="69.2" type="line"/>
      <point x="333.52" y="-30.0" type="line"/>
      <point x="355.11999999999995" y="-30.0" type="line" smooth="yes"/>
      <point x="688.7368421052631" y="-30.0"/>
      <point x="1062.2799999999997" y="427.92"/>
      <point x="1062.2799999999997" y="812.0" type="qcurve" smooth="yes"/>
      <point x="1062.2799999999997" y="842.0" type="line" smooth="yes"/>
      <point x="1062.2799999999997" y="1182.0"/>
      <point x="786.30375" y="1486.0"/>
      <point x="594.72" y="1486.0" type="qcurve" smooth="yes"/>
      <point x="402.559173553719" y="1486.0"/>
      <point x="159.03999999999996" y="1217.3355371900827"/>
    </contour>
  </outline>
</glyph>
<glyph name="less" format="2">
  <advance width="1382"/>
  <unicode hex="003C"/>
  <outline>
    <contour>
      <point x="1130.48" y="238.84" type="line"/>
      <point x="1130.48" y="345.44" type="line"/>
      <point x="355.44" y="671.0" type="line"/>
      <point x="1130.48" y="996.5600000000001" type="line"/>
      <point x="1130.48" y="1113.16" type="line"/>
      <point x="240.8" y="727.0000000000001" type="line"/>
      <point x="240.8" y="624.9999999999999" type="line"/>
    </contour>
  </outline>
</glyph>
<glyph name="E" format="2">
  <advance width="1073"/>
  <unicode hex="0045"/>
  <anchor x="626.0" y="1308.0" name="top"/>
  <outline>
    <contour>
      <point x="170.0" y="0.0" type="line"/>
      <point x="1005.0399999999998" y="0.0" type="line"/>
      <point x="1005.0399999999998" y="97.99999999999999" type="line"/>
      <point x="272.52" y="97.99999999999999" type="line"/>
      <point x="272.52" y="702.0" type="line"/>
      <point x="895.0399999999998" y="702.0" type="line"/>
      <point x="895.0399999999998" y="800.0" type="line"/>
      <point x="272.52" y="800.0" type="line"/>
      <point x="272.52" y="1358.0" type="line"/>
      <point x="994.4" y="1358.0" type="line"/>
      <point x="994.4" y="1456.0" type="line"/>
      <point x="170.0" y="1456.0" type="line"/>
    </contour>
  </outline>
</glyph>
<glyph name="M" format="2">
  <advance width="1733"/>
  <unicode hex="004D"/>
  <outline>
    <contour>
      <point x="170.0" y="0.0" type="line"/>
      <point x="264.28" y="0.0" type="line"/>
      <point x="264.28" y="1183.8" type="line" smooth="yes"/>
      <point x="264.28" y="1213.8"/>
      <point x="258.12" y="1288.8"/>
      <point x="254.12" y="1318.8" type="qcurve"/>
      <point x="265.8" y="1318.8" type="line"/>
      <point x="272.12" y="1288.8"/>
      <point x="298.08" y="1213.8"/>
      <point x="310.56" y="1183.8" type="qcurve" smooth="yes"/>
      <point x="816.88" y="0.0" type="line"/>
      <point x="909.6" y="0.0" type="line"/>
      <point x="1401.0" y="1184.0" type="line" smooth="yes"/>
      <point x="1413.0" y="1214.0"/>
      <point x="1447.36" y="1288.8"/>
      <point x="1457.68" y="1318.8" type="qcurve"/>
      <point x="1468.36" y="1318.8" type="line"/>
      <point x="1464.36" y="1288.8"/>
      <point x="1461.2" y="1213.8"/>
      <point x="1461.2" y="1183.8" type="qcurve" smooth="yes"/>
      <point x="1461.2" y="0.0" type="line"/>
      <point x="1562.52" y="0.0" type="line"/>
      <point x="1562.52" y="1456.0" type="line"/>
      <point x="1437.8" y="1456.0" type="line"/>
      <point x="925.0" y="248.0" type="line" smooth="yes"/>
      <point x="913.0" y="218.0"/>
      <point x="881.0" y="123.0"/>
      <point x="872.0" y="93.0" type="qcurve"/>
      <point x="863.0" y="93.0" type="line"/>
      <point x="856.0" y="121.0"/>
      <point x="819.0" y="218.0"/>
      <point x="806.0" y="248.0" type="qcurve" smooth="yes"/>
      <point x="278.0" y="1456.0" type="line"/>
      <point x="170.0" y="1456.0" type="line"/>
    </contour>
  </outline>
</glyph>
<glyph name="R" format="2">
  <advance width="1141"/>
  <unicode hex="0052"/>
  <outline>
    <contour>
      <point x="170.0" y="0.0" type="line"/>
      <point x="272.52" y="0.0" type="line"/>
      <point x="272.52" y="619.12" type="line"/>
      <point x="592.5999999999999" y="619.12" type="line" smooth="yes"/>
      <point x="811.28" y="619.12"/>
      <point x="1030.8999999999999" y="850.92"/>
      <point x="1030.8999999999999" y="1038.52" type="qcurve" smooth="yes"/>
      <point x="1030.8999999999999" y="1226.1200000000001"/>
      <point x="811.2609836065574" y="1456.0"/>
      <point x="592.5999999999999" y="1456.0" type="qcurve" smooth="yes"/>
      <point x="170.0" y="1456.0" type="line"/>
    </contour>
    <contour>
      <point x="272.52" y="716.72" type="line"/>
      <point x="272.52" y="1358.3999999999999" type="line"/>
      <point x="592.5999999999999" y="1358.3999999999999" type="line" smooth="yes"/>
      <point x="780.3132972972974" y="1358.3999999999999"/>
      <point x="927.64" y="1175.2"/>
      <point x="927.64" y="1038.52" type="qcurve" smooth="yes"/>
      <point x="927.64" y="901.84"/>
      <point x="780.3132972972974" y="716.72"/>
      <point x="592.5999999999999" y="716.72" type="qcurve" smooth="yes"/>
    </contour>
    <contour>
      <point x="977.88" y="0.0" type="line"/>
      <point x="1099.4" y="0.0" type="line"/>
      <point x="708.9200000000001" y="672.0" type="line"/>
      <point x="593.7199999999999" y="672.0" type="line"/>
    </contour>
  </outline>
</glyph>
<glyph name="X" format="2">
  <advance width="1240"/>
  <unicode hex="0058"/>
  <outline>
    <contour>
      <point x="25.0" y="0.0" type="line"/>
      <point x="142.12" y="0.0" type="line"/>
      <point x="638.9399999999999" y="699.24" type="line"/>
      <point x="655.14" y="699.24" type="line"/>
      <point x="1186.96" y="1456.0" type="line"/>
      <point x="1069.84" y="1456.0" type="line"/>
      <point x="601.32" y="776.76" type="line"/>
      <point x="585.1199999999999" y="776.76" type="line"/>
    </contour>
    <contour>
      <point x="52.56" y="1456.0" type="line"/>
      <point x="584.3799999999999" y="699.24" type="line"/>
      <point x="589.42" y="699.24" type="line"/>
      <point x="1084.02" y="0.0" type="line"/>
      <point x="1214.52" y="0.0" type="line"/>
      <point x="655.88" y="776.76" type="line"/>
      <point x="650.84" y="776.76" type="line"/>
      <point x="183.06000000000003" y="1456.0" type="line"/>
    </contour>
  </outline>
</glyph>
<glyph name="Y" format="2">
  <advance width="1172"/>
  <unicode hex="0059"/>
  <anchor x="614.0" y="1432.0" name="top"/>
  <outline>
    <contour>
      <point x="534.8399999999999" y="0.0" type="line"/>
      <point x="637.36" y="0.0" type="line"/>
      <point x="637.36" y="574.4" type="line"/>
      <point x="1157.2" y="1456.0" type="line"/>
      <point x="1043.1599999999999" y="1456.0" type="line"/>
      <point x="652.76" y="795.4" type="line" smooth="yes"/>
      <point x="635.16" y="765.4"/>
      <point x="604.96" y="705.4"/>
      <point x="592.36" y="675.4" type="qcurve"/>
      <point x="586.68" y="675.4" type="line"/>
      <point x="574.0799999999999" y="705.4"/>
      <point x="543.88" y="765.4"/>
      <point x="526.28" y="795.4" type="qcurve" smooth="yes"/>
      <point x="138.4" y="1456.0" type="line"/>
      <point x="15.0" y="1456.0" type="line"/>
      <point x="534.8399999999999" y="574.4" type="line"/>
    </contour>
  </outline>
</glyph>
<glyph name="Z" format="2">
  <advance width="1144"/>
  <unicode hex="005A"/>
  <outline>
    <contour>
      <point x="36.0" y="0.0" type="line"/>
      <point x="1108.4599999999998" y="0.0" type="line"/>
      <point x="1108.4599999999998" y="97.99999999999999" type="line"/>
      <point x="178.86" y="97.99999999999999" type="line"/>
      <point x="1073.8999999999999" y="1378.4" type="line"/>
      <point x="1073.8999999999999" y="1456.0" type="line"/>
      <point x="48.959999999999994" y="1456.0" type="line"/>
      <point x="48.959999999999994" y="1358.0" type="line"/>
      <point x="931.04" y="1358.0" type="line"/>
      <point x="36.0" y="77.60000000000001" type="line"/>
    </contour>
  </outline>
</glyph>
<glyph name="asciicircum" format="2">
  <advance width="1180"/>
  <unicode hex="005E"/>
  <outline>
    <contour>
      <point x="25.0" y="720.0" type="line"/>
      <point x="144.8" y="720.0" type="line"/>
      <point x="589.6999999999999" y="1350.88" type="line"/>
      <point x="1034.6" y="720.0" type="line"/>
      <point x="1154.3999999999999" y="720.0" type="line"/>
      <point x="634.6" y="1456.0" type="line"/>
      <point x="544.8" y="1456.0" type="line"/>
    </contour>
  </outline>
</glyph>
<glyph name="underscore" format="2">
  <advance width="898"/>
  <unicode hex="005F"/>
  <outline>
    <contour>
      <point x="0.0" y="-48.0" type="line"/>
      <point x="898.0" y="-48.0" type="line"/>
      <point x="898.0" y="44.0" type="line"/>
      <point x="0.0" y="44.0" type="line"/>
    </contour>
  </outline>
</glyph>
<glyph name="grave" format="2">
  <advance width="1048"/>
  <unicode hex="0060"/>
  <anchor x="512.0" y="1052.0" name="_top"/>
  <outline>
    <contour>
      <point x="580.0" y="1199.0" type="line"/>
      <point x="659.0" y="1253.0" type="line"/>
      <point x="415.0" y="1565.0" type="line"/>
      <point x="289.0" y="1470.0" type="line"/>
    </contour>
  </outline>
</glyph>
<glyph name="a" format="2">
  <advance width="1043"/>
  <unicode hex="0061"/>
  <anchor x="532.0" y="1089.0" name="top"/>
  <outline>
    <contour>
      <point x="90.0" y="299.20000000000005" type="qcurve" smooth="yes"/>
      <point x="90.0" y="141.34545454545454"/>
      <point x="275.4384435797665" y="-20.0"/>
      <point x="423.64" y="-20.0" type="qcurve" smooth="yes"/>
      <point x="563.8063473405817" y="-20.0"/>
      <point x="754.4392368673997" y="103.302995594842"/>
      <point x="796.28" y="171.8" type="qcurve"/>
      <point x="800.4717177985904" y="124.60376268546165"/>
      <point x="823.9425855649447" y="29.252525776884358"/>
      <point x="842.56" y="0.0" type="qcurve"/>
      <point x="936.2399999999999" y="0.0" type="line"/>
      <point x="936.2399999999999" y="16.0" type="line"/>
      <point x="916.32" y="60.0"/>
      <point x="894.0799999999999" y="175.0"/>
      <point x="894.0799999999999" y="240.0" type="qcurve" smooth="yes"/>
      <point x="894.0799999999999" y="757.12" type="line" smooth="yes"/>
      <point x="894.0799999999999" y="937.12"/>
      <point x="705.3399999999999" y="1119.12"/>
      <point x="534.3599999999999" y="1119.12" type="qcurve" smooth="yes"/>
      <point x="356.14" y="1119.12"/>
      <point x="161.18" y="926.4015384615384"/>
      <point x="161.18" y="791.92" type="qcurve" smooth="yes"/>
      <point x="161.18" y="786.92" type="line"/>
      <point x="258.68000000000006" y="786.92" type="line"/>
      <point x="258.68000000000006" y="791.92" type="line" smooth="yes"/>
      <point x="258.68000000000006" y="885.2066666666666"/>
      <point x="383.42627062706265" y="1026.72"/>
      <point x="528.72" y="1026.72" type="qcurve" smooth="yes"/>
      <point x="674.246734006734" y="1026.72"/>
      <point x="793.44" y="877.8000000000001"/>
      <point x="793.44" y="757.12" type="qcurve" smooth="yes"/>
      <point x="793.44" y="636.8" type="line"/>
      <point x="506.48" y="636.8" type="line" smooth="yes"/>
      <point x="324.58" y="636.8"/>
      <point x="90.0" y="455.1053266331658"/>
    </contour>
    <contour>
      <point x="190.64" y="302.40000000000003" type="qcurve" smooth="yes"/>
      <point x="190.64" y="414.1390816326531"/>
      <point x="362.1666321243523" y="550.0"/>
      <point x="528.72" y="550.0" type="qcurve" smooth="yes"/>
      <point x="793.44" y="550.0" type="line"/>
      <point x="793.44" y="353.59999999999997" type="line"/>
      <point x="793.44" y="251.08064135021095"/>
      <point x="580.7351927437642" y="72.40000000000002"/>
      <point x="449.12" y="72.40000000000002" type="qcurve" smooth="yes"/>
      <point x="316.09088351478954" y="72.40000000000002"/>
      <point x="190.64" y="192.675"/>
    </contour>
  </outline>
</glyph>
<glyph name="l" format="2">
  <advance width="412"/>
  <unicode hex="006C"/>
  <outline>
    <contour>
      <point x="156.0" y="0.0" type="line"/>
      <point x="256.64" y="0.0" type="line"/>
      <point x="256.64" y="1536.0" type="line"/>
      <point x="156.0" y="1536.0" type="line"/>
    </contour>
  </outline>
</glyph>
<glyph name="q" format="2">
  <advance width="1105"/>
  <unicode hex="0071"/>
  <outline>
    <contour>
      <point x="85.0" y="529.0" type="line" smooth="yes"/>
      <point x="85.0" y="291.0"/>
      <point x="309.0" y="-20.0"/>
      <point x="507.0" y="-20.0" type="qcurve" smooth="yes"/>
      <point x="627.0" y="-20.0"/>
      <point x="801.0" y="65.0"/>
      <point x="856.0" y="134.0" type="qcurve"/>
      <point x="856.0" y="134.0" type="line"/>
      <point x="856.0" y="-416.0" type="line"/>
      <point x="957.0" y="-416.0" type="line"/>
      <point x="957.0" y="1089.0" type="line"/>
      <point x="865.0" y="1089.0" type="line"/>
      <point x="862.0" y="942.0" type="line"/>
      <point x="860.0" y="942.0" type="line"/>
      <point x="813.0" y="1010.0"/>
      <point x="627.0" y="1109.0"/>
      <point x="507.0" y="1109.0" type="qcurve" smooth="yes"/>
      <point x="309.0" y="1109.0"/>
      <point x="85.0" y="799.0"/>
      <point x="85.0" y="561.0" type="qcurve" smooth="yes"/>
    </contour>
    <contour>
      <point x="187.16000000000003" y="528.56" type="qcurve" smooth="yes"/>
      <point x="187.16000000000003" y="560.56" type="line" smooth="yes"/>
      <point x="187.16000000000003" y="751.6276923076923"/>
      <point x="353.71999999999997" y="1012.32"/>
      <point x="532.1999999999999" y="1012.32" type="qcurve" smooth="yes"/>
      <point x="651.72" y="1012.32"/>
      <point x="818.92" y="896.2"/>
      <point x="856.0" y="821.36" type="qcurve"/>
      <point x="856.0" y="267.76000000000005" type="line"/>
      <point x="819.24" y="192.92"/>
      <point x="651.72" y="76.80000000000003"/>
      <point x="532.1999999999999" y="76.80000000000003" type="qcurve" smooth="yes"/>
      <point x="353.71999999999997" y="76.80000000000003"/>
      <point x="187.16000000000003" y="337.46391534391535"/>
    </contour>
  </outline>
</glyph>
<glyph name="r" format="2">
  <advance width="674"/>
  <unicode hex="0072"/>
  <outline>
    <contour>
      <point x="148.0" y="0.0" type="line"/>
      <point x="248.64" y="0.0" type="line"/>
      <point x="248.64" y="815.28" type="line"/>
      <point x="288.26913358962247" y="897.6780438519083"/>
      <point x="443.52799999999996" y="1011.12"/>
      <point x="544.56" y="1011.12" type="qcurve" smooth="yes"/>
      <point x="573.44" y="1011.12"/>
      <point x="622.56" y="1004.4000000000001"/>
      <point x="644.8" y="1000.4000000000001" type="qcurve"/>
      <point x="644.8" y="1105.12" type="line"/>
      <point x="633.52" y="1109.12"/>
      <point x="580.0799999999999" y="1119.12"/>
      <point x="555.52" y="1119.12" type="qcurve" smooth="yes"/>
      <point x="447.87014164305947" y="1119.12"/>
      <point x="292.7788996766634" y="1012.2238254662603"/>
      <point x="244.32000000000005" y="941.32" type="qcurve"/>
      <point x="242.88000000000005" y="941.32" type="line"/>
      <point x="239.84000000000003" y="1089.12" type="line"/>
      <point x="148.0" y="1089.12" type="line"/>
    </contour>
  </outline>
</glyph>
<glyph name="v" format="2">
  <advance width="964"/>
  <unicode hex="0076"/>
  <outline>
    <contour>
      <point x="0.0" y="1089.12" type="line"/>
      <point x="434.24" y="0.0" type="line"/>
      <point x="530.98" y="0.0" type="line"/>
      <point x="964.0" y="1089.0" type="line"/>
      <point x="859.0" y="1089.0" type="line"/>
      <point x="527.72" y="242.60000000000002" type="line" smooth="yes"/>
      <point x="513.0" y="202.0"/>
      <point x="486.0" y="138.0"/>
      <point x="487.0" y="124.0" type="qcurve"/>
      <point x="483.0" y="124.0" type="line"/>
      <point x="482.0" y="142.0"/>
      <point x="459.8" y="197.28000000000003"/>
      <point x="442.56" y="241.60000000000002" type="qcurve" smooth="yes"/>
      <point x="109.60000000000002" y="1089.12" type="line"/>
    </contour>
  </outline>
</glyph>
<glyph name="w" format="2">
  <advance width="1561"/>
  <unicode hex="0077"/>
  <outline>
    <contour>
      <point x="25.0" y="1089.12" type="line"/>
      <point x="347.8" y="0.0" type="line"/>
      <point x="457.73999999999995" y="0.0" type="line"/>
      <point x="733.52" y="822.2" type="line" smooth="yes"/>
      <point x="747.74" y="862.2"/>
      <point x="770.96" y="942.2"/>
      <point x="779.8" y="982.2" type="qcurve"/>
      <point x="785.8" y="982.2" type="line"/>
      <point x="794.64" y="942.2"/>
      <point x="817.86" y="862.2"/>
      <point x="832.0799999999999" y="822.2" type="qcurve" smooth="yes"/>
      <point x="1104.74" y="0.0" type="line"/>
      <point x="1213.2399999999998" y="0.0" type="line"/>
      <point x="1535.7199999999998" y="1089.12" type="line"/>
      <point x="1436.0" y="1089.12" type="line"/>
      <point x="1203.5" y="276.6" type="line" smooth="yes"/>
      <point x="1192.44" y="236.6"/>
      <point x="1173.5" y="156.6"/>
      <point x="1165.1599999999999" y="116.6" type="qcurve"/>
      <point x="1159.1599999999999" y="116.6" type="line"/>
      <point x="1149.6599999999999" y="156.6"/>
      <point x="1122.0" y="237.0"/>
      <point x="1108.0" y="277.0" type="qcurve" smooth="yes"/>
      <point x="835.0" y="1089.12" type="line"/>
      <point x="734.0799999999999" y="1089.12" type="line"/>
      <point x="463.0" y="277.0" type="line" smooth="yes"/>
      <point x="450.0" y="237.0"/>
      <point x="422.65999999999997" y="156.6"/>
      <point x="413.15999999999997" y="116.6" type="qcurve"/>
      <point x="407.15999999999997" y="116.6" type="line"/>
      <point x="398.82" y="156.6"/>
      <point x="376.0" y="237.0"/>
      <point x="365.0" y="277.0" type="qcurve" smooth="yes"/>
      <point x="133.44000000000003" y="1089.12" type="line"/>
    </contour>
  </outline>
</glyph>
<glyph name="x" format="2">
  <advance width="980"/>
  <unicode hex="0078"/>
  <outline>
    <contour>
      <point x="20.0" y="0.0" type="line"/>
      <point x="139.2" y="0.0" type="line"/>
      <point x="512.46" y="522.96" type="line"/>
      <point x="529.8399999999999" y="522.96" type="line"/>
      <point x="937.76" y="1089.12" type="line"/>
      <point x="818.88" y="1089.12" type="line"/>
      <point x="463.38" y="580.16" type="line"/>
      <point x="446.0" y="580.16" type="line"/>
    </contour>
    <contour>
      <point x="42.56" y="1089.12" type="line"/>
      <point x="450.47999999999996" y="522.96" type="line"/>
      <point x="462.56" y="522.96" type="line"/>
      <point x="832.1999999999999" y="0.0" type="line"/>
      <point x="960.32" y="0.0" type="line"/>
      <point x="534.3199999999999" y="580.16" type="line"/>
      <point x="522.24" y="580.16" type="line"/>
      <point x="170.68" y="1089.12" type="line"/>
    </contour>
  </outline>
</glyph>
<glyph name="braceright" format="2">
  <advance width="614"/>
  <unicode hex="007D"/>
  <outline>
    <contour>
      <point x="-1.3599999999999852" y="-312.0" type="line"/>
      <point x="210.04000000000002" y="-312.0"/>
      <point x="439.67999999999995" y="-47.040000000000006"/>
      <point x="391.08" y="135.8" type="qcurve" smooth="yes"/>
      <point x="339.96000000000004" y="329.2" type="line" smooth="yes"/>
      <point x="308.59999999999997" y="451.71999999999997"/>
      <point x="446.84" y="530.4000000000001"/>
      <point x="566.52" y="530.4000000000001" type="qcurve"/>
      <point x="566.52" y="617.5999999999999" type="line"/>
      <point x="446.84" y="617.5999999999999"/>
      <point x="308.59999999999997" y="696.28"/>
      <point x="339.96000000000004" y="818.8" type="qcurve" smooth="yes"/>
      <point x="391.08" y="1012.2" type="line" smooth="yes"/>
      <point x="439.67999999999995" y="1195.04"/>
      <point x="210.04000000000002" y="1460.0"/>
      <point x="-1.3599999999999852" y="1460.0" type="qcurve"/>
      <point x="-1.3599999999999852" y="1368.0" type="line"/>
      <point x="176.56" y="1368.0"/>
      <point x="331.02000000000004" y="1162.28"/>
      <point x="289.12" y="1007.4" type="qcurve" smooth="yes"/>
      <point x="238.0" y="814.0" type="line" smooth="yes"/>
      <point x="216.39999999999998" y="730.1999999999999"/>
      <point x="288.08000000000004" y="596.8"/>
      <point x="385.12" y="574.0" type="qcurve"/>
      <point x="288.08000000000004" y="551.2"/>
      <point x="216.39999999999998" y="417.79999999999995"/>
      <point x="238.0" y="334.0" type="qcurve" smooth="yes"/>
      <point x="289.12" y="140.6" type="line" smooth="yes"/>
      <point x="331.02000000000004" y="-14.279999999999996"/>
      <point x="176.56" y="-220.0"/>
      <point x="-1.3599999999999852" y="-220.0" type="qcurve"/>
    </contour>
  </outline>
</glyph>
<glyph name="trademark" format="2">
  <advance width="1881"/>
  <unicode hex="2122"/>
  <outline>
    <contour>
      <point x="24.0" y="1288.0" type="line"/>
      <point x="292.0" y="1288.0" type="line"/>
      <point x="292.0" y="690.0" type="line"/>
      <point x="464.0" y="690.0" type="line"/>
      <point x="464.0" y="1288.0" type="line"/>
      <point x="732.0" y="1288.0" type="line"/>
      <point x="732.0" y="1446.0" type="line"/>
      <point x="24.0" y="1446.0" type="line"/>
    </contour>
    <contour>
      <point x="850.0" y="690.0" type="line"/>
      <point x="1005.0" y="690.0" type="line"/>
      <point x="1005.0" y="1165.0" type="line"/>
      <point x="1017.0" y="1165.0" type="line"/>
      <point x="1213.0" y="690.0" type="line"/>
      <point x="1349.0" y="690.0" type="line"/>
      <point x="1555.0" y="1165.0" type="line"/>
      <point x="1567.0" y="1165.0" type="line"/>
      <point x="1567.0" y="690.0" type="line"/>
      <point x="1716.0" y="690.0" type="line"/>
      <point x="1716.0" y="1446.0" type="line"/>
      <point x="1545.0" y="1446.0" type="line"/>
      <point x="1285.0" y="866.0" type="line"/>
      <point x="1277.0" y="866.0" type="line"/>
      <point x="1021.0" y="1446.0" type="line"/>
      <point x="850.0" y="1446.0" type="line"/>
    </contour>
  </outline>
</glyph>
